<svg viewBox="0 0 32 32" xml:space="preserve" xmlns="http://www.w3.org/2000/svg"><path d="M20.722 24.964a.186.186 0 0 1-.073.306c-7.7 2.466-16.032-1.503-18.594-8.942a1.02 1.02 0 0 1 0-.655A14.007 14.007 0 0 1 5.643 10.1a.156.156 0 0 1 .217.003l4.302 4.302c.03.03.041.072.031.113-1.116 4.345 2.948 8.395 7.276 7.294a.13.13 0 0 1 .131.032l3.122 3.12zM24.68 23.266c2.406-1.692 4.281-4.079 5.266-6.941.072-.21.072-.44 0-.65C27.954 9.888 22.35 6 16 6c-2.479 0-4.841.597-6.921 1.665L3.707 2.293a.999.999 0 1 0-1.414 1.414l26 26a.999.999 0 1 0 1.414-1.414l-5.027-5.027zM16 10c3.309 0 6 2.691 6 6 0 1.294-.416 2.49-1.115 3.471l-8.356-8.356A5.961 5.961 0 0 1 16 10z" fill="#ffffff" class="fill-000000"></path></svg>